# xmcd CD database file
#
# Track frame offsets:
#	150
#	24855
#	45038
#	74520
#	87703
#	109020
#	118368
#	129420
#	148615
#	160275
#	180348
#	196083
#	211498
#	222930
#	241145
#	251023
#
# Disc length: 3737 seconds
#
# Revision: 5
# Processed by: cddbd v1.5.2PL0 Copyright (c) Steve Scherf et al.
# Submitted via: CDex 1.51
#
DISCID=e00e9710
DTITLE=Dave Brubeck - Take Five
DYEAR=1993
DGENRE=Jazz
TTITLE0=Take Five
TTITLE1=C Jam Blues
TTITLE2=The Duke
TTITLE3=Am I Blue
TTITLE4=Blues In The Dark
TTITLE5=Unsquare Dance
TTITLE6=Bossa Nova U.S.A.
TTITLE7=Evenin'
TTITLE8=All By Myself
TTITLE9=River, Stay Away From My Door
TTITLE10=You Can Depend On Me
TTITLE11=Ain't Misbehavin'
TTITLE12=I Never Know
TTITLE13=My Melancholy Baby
TTITLE14=There'll Be Some Changes Made
TTITLE15=Flamingo
EXTD=YEAR: 1993
EXTT0=
EXTT1=
EXTT2=
EXTT3=
EXTT4=
EXTT5=
EXTT6=
EXTT7=
EXTT8=
EXTT9=
EXTT10=
EXTT11=
EXTT12=
EXTT13=
EXTT14=
EXTT15=
PLAYORDER=
